<?xml version="1.0" encoding="UTF-8"?>
<svg xmlns="http://www.w3.org/2000/svg" xmlns:xlink="http://www.w3.org/1999/xlink" width="504pt" height="504pt" viewBox="0 0 504 504" version="1.1">
<g id="surface6">
<rect x="0" y="0" width="504" height="504" style="fill:rgb(100%,100%,100%);fill-opacity:1;stroke:none;"/>
<path style="fill:none;stroke-width:0.75;stroke-linecap:round;stroke-linejoin:round;stroke:rgb(0%,0%,0%);stroke-opacity:1;stroke-miterlimit:10;" d="M 18.667969 433.34375 L 18.898438 433.339844 L 19.132812 433.339844 L 19.601562 433.332031 L 19.832031 433.332031 L 20.066406 433.328125 L 20.300781 433.328125 L 20.769531 433.320312 L 21 433.320312 L 21.46875 433.3125 L 21.703125 433.3125 L 21.933594 433.308594 L 22.402344 433.300781 L 22.636719 433.300781 L 22.867188 433.296875 L 23.335938 433.289062 L 23.570312 433.289062 L 23.800781 433.285156 L 24.269531 433.277344 L 24.503906 433.277344 L 24.738281 433.273438 L 24.96875 433.269531 L 25.671875 433.257812 L 25.902344 433.253906 L 26.136719 433.25 L 26.371094 433.25 L 26.605469 433.246094 L 26.835938 433.242188 L 27.539062 433.230469 L 27.769531 433.226562 L 28.472656 433.214844 L 28.703125 433.210938 L 28.9375 433.207031 L 29.171875 433.199219 L 29.640625 433.191406 L 29.871094 433.1875 L 30.574219 433.175781 L 30.804688 433.167969 L 31.507812 433.15625 L 31.738281 433.148438 L 32.207031 433.140625 L 32.441406 433.132812 L 32.671875 433.128906 L 32.90625 433.125 L 33.140625 433.117188 L 33.375 433.113281 L 33.609375 433.105469 L 33.839844 433.101562 L 34.074219 433.097656 L 34.308594 433.089844 L 34.542969 433.085938 L 34.773438 433.078125 L 35.007812 433.070312 L 35.242188 433.066406 L 35.476562 433.058594 L 35.707031 433.054688 L 36.175781 433.039062 L 36.410156 433.035156 L 36.640625 433.027344 L 36.875 433.019531 L 37.109375 433.015625 L 37.34375 433.007812 L 37.574219 433 L 38.277344 432.976562 L 38.511719 432.972656 L 38.742188 432.964844 L 39.445312 432.941406 L 39.675781 432.933594 L 39.910156 432.925781 L 40.144531 432.914062 L 40.378906 432.90625 L 40.609375 432.898438 L 41.3125 432.875 L 41.542969 432.863281 L 42.011719 432.847656 L 42.246094 432.835938 L 42.480469 432.828125 L 42.710938 432.820312 L 42.945312 432.808594 L 43.179688 432.800781 L 43.414062 432.789062 L 43.644531 432.78125 L 44.113281 432.757812 L 44.347656 432.75 L 44.578125 432.738281 L 45.046875 432.714844 L 45.28125 432.707031 L 45.511719 432.695312 L 46.214844 432.660156 L 46.445312 432.648438 L 47.382812 432.601562 L 47.613281 432.589844 L 47.847656 432.574219 L 48.316406 432.550781 L 48.546875 432.535156 L 49.015625 432.511719 L 49.25 432.496094 L 49.480469 432.484375 L 49.949219 432.453125 L 50.183594 432.441406 L 50.414062 432.425781 L 50.882812 432.394531 L 51.117188 432.382812 L 51.351562 432.367188 L 51.582031 432.351562 L 52.285156 432.304688 L 52.515625 432.285156 L 53.21875 432.238281 L 53.449219 432.21875 L 53.683594 432.203125 L 53.917969 432.183594 L 54.152344 432.167969 L 54.382812 432.148438 L 54.617188 432.132812 L 55.085938 432.09375 L 55.316406 432.074219 L 56.253906 431.996094 L 56.484375 431.976562 L 56.953125 431.9375 L 57.1875 431.914062 L 57.417969 431.894531 L 57.652344 431.875 L 58.121094 431.828125 L 58.351562 431.808594 L 59.054688 431.738281 L 59.285156 431.714844 L 60.222656 431.621094 L 60.453125 431.597656 L 60.6875 431.570312 L 60.921875 431.546875 L 61.15625 431.519531 L 61.386719 431.496094 L 62.089844 431.414062 L 62.320312 431.386719 L 63.023438 431.304688 L 63.253906 431.277344 L 63.488281 431.25 L 63.722656 431.21875 L 63.957031 431.191406 L 64.1875 431.160156 L 64.65625 431.097656 L 64.890625 431.070312 L 65.125 431.039062 L 65.355469 431.007812 L 65.589844 430.972656 L 66.058594 430.910156 L 66.289062 430.875 L 66.523438 430.84375 L 66.992188 430.773438 L 67.222656 430.742188 L 67.691406 430.671875 L 67.925781 430.632812 L 68.15625 430.597656 L 68.390625 430.5625 L 68.625 430.523438 L 68.859375 430.488281 L 69.09375 430.449219 L 69.324219 430.410156 L 70.027344 430.292969 L 70.257812 430.253906 L 70.492188 430.214844 L 70.960938 430.128906 L 71.191406 430.089844 L 71.894531 429.960938 L 72.125 429.917969 L 72.359375 429.871094 L 72.59375 429.828125 L 72.828125 429.78125 L 73.058594 429.738281 L 73.996094 429.550781 L 74.226562 429.5 L 74.460938 429.453125 L 74.929688 429.351562 L 75.160156 429.300781 L 75.863281 429.148438 L 76.09375 429.09375 L 76.328125 429.042969 L 76.796875 428.933594 L 77.027344 428.878906 L 77.261719 428.824219 L 77.496094 428.765625 L 77.730469 428.710938 L 77.964844 428.652344 L 78.195312 428.59375 L 78.898438 428.417969 L 79.128906 428.355469 L 79.363281 428.296875 L 79.832031 428.171875 L 80.0625 428.109375 L 80.296875 428.042969 L 80.53125 427.980469 L 80.765625 427.914062 L 80.996094 427.851562 L 81.230469 427.785156 L 81.464844 427.714844 L 81.699219 427.648438 L 81.929688 427.578125 L 82.164062 427.511719 L 82.632812 427.371094 L 82.867188 427.296875 L 83.097656 427.226562 L 83.800781 427.003906 L 84.03125 426.929688 L 84.265625 426.855469 L 84.734375 426.699219 L 84.964844 426.621094 L 85.433594 426.464844 L 85.667969 426.382812 L 85.898438 426.300781 L 86.367188 426.136719 L 86.601562 426.050781 L 86.835938 425.96875 L 87.066406 425.882812 L 87.300781 425.796875 L 87.535156 425.707031 L 87.769531 425.621094 L 88 425.53125 L 88.46875 425.351562 L 88.703125 425.257812 L 88.933594 425.167969 L 89.402344 424.980469 L 89.636719 424.882812 L 89.867188 424.785156 L 90.101562 424.691406 L 90.335938 424.589844 L 90.804688 424.394531 L 91.035156 424.292969 L 91.269531 424.191406 L 91.503906 424.085938 L 91.738281 423.984375 L 91.96875 423.878906 L 92.203125 423.773438 L 92.4375 423.664062 L 92.671875 423.558594 L 92.902344 423.449219 L 93.136719 423.339844 L 93.605469 423.113281 L 93.835938 423 L 94.304688 422.773438 L 94.539062 422.65625 L 94.769531 422.539062 L 95.003906 422.417969 L 95.238281 422.300781 L 95.707031 422.058594 L 95.9375 421.933594 L 96.640625 421.558594 L 96.871094 421.429688 L 97.339844 421.171875 L 97.574219 421.039062 L 97.804688 420.90625 L 98.273438 420.640625 L 98.507812 420.503906 L 98.738281 420.367188 L 99.675781 419.804688 L 99.90625 419.660156 L 100.375 419.371094 L 100.609375 419.222656 L 100.839844 419.074219 L 101.074219 418.921875 L 101.308594 418.773438 L 101.542969 418.621094 L 101.773438 418.464844 L 102.476562 417.996094 L 102.707031 417.835938 L 102.941406 417.675781 L 103.410156 417.347656 L 103.640625 417.183594 L 104.34375 416.679688 L 104.578125 416.507812 L 104.808594 416.335938 L 105.511719 415.808594 L 105.742188 415.632812 L 105.976562 415.453125 L 106.445312 415.085938 L 106.675781 414.902344 L 107.378906 414.339844 L 107.609375 414.148438 L 107.84375 413.957031 L 108.546875 413.371094 L 108.777344 413.171875 L 109.011719 412.972656 L 109.480469 412.566406 L 109.710938 412.359375 L 110.179688 411.945312 L 110.414062 411.734375 L 110.644531 411.523438 L 111.113281 411.09375 L 111.347656 410.875 L 111.578125 410.65625 L 112.28125 409.988281 L 112.511719 409.761719 L 112.746094 409.535156 L 113.214844 409.074219 L 113.449219 408.839844 L 113.679688 408.605469 L 114.148438 408.128906 L 114.382812 407.886719 L 114.613281 407.644531 L 114.847656 407.402344 L 115.082031 407.15625 L 115.316406 406.90625 L 115.546875 406.65625 L 115.78125 406.40625 L 116.015625 406.152344 L 116.25 405.894531 L 116.480469 405.636719 L 117.183594 404.851562 L 117.417969 404.585938 L 117.648438 404.316406 L 118.117188 403.777344 L 118.351562 403.503906 L 118.582031 403.226562 L 118.816406 402.949219 L 119.285156 402.386719 L 119.515625 402.101562 L 119.75 401.816406 L 120.21875 401.238281 L 120.449219 400.945312 L 121.152344 400.054688 L 121.382812 399.753906 L 121.851562 399.144531 L 122.320312 398.527344 L 122.550781 398.214844 L 123.253906 397.265625 L 123.484375 396.941406 L 123.71875 396.621094 L 124.1875 395.964844 L 124.417969 395.636719 L 124.652344 395.304688 L 125.121094 394.632812 L 125.351562 394.292969 L 125.585938 393.953125 L 125.820312 393.609375 L 126.289062 392.914062 L 126.519531 392.5625 L 126.988281 391.851562 L 127.222656 391.492188 L 127.453125 391.132812 L 127.921875 390.40625 L 128.15625 390.035156 L 128.386719 389.667969 L 128.855469 388.917969 L 129.089844 388.539062 L 129.320312 388.160156 L 129.554688 387.777344 L 130.023438 387.003906 L 130.253906 386.613281 L 130.488281 386.222656 L 130.722656 385.828125 L 130.957031 385.429688 L 131.191406 385.027344 L 131.421875 384.625 L 131.890625 383.8125 L 132.125 383.402344 L 132.355469 382.988281 L 132.589844 382.574219 L 132.824219 382.15625 L 133.058594 381.734375 L 133.289062 381.308594 L 133.523438 380.882812 L 133.992188 380.023438 L 134.222656 379.589844 L 134.691406 378.714844 L 134.925781 378.269531 L 135.160156 377.828125 L 135.390625 377.378906 L 135.625 376.929688 L 135.859375 376.476562 L 136.09375 376.019531 L 136.324219 375.5625 L 136.558594 375.101562 L 137.027344 374.171875 L 137.257812 373.703125 L 137.492188 373.230469 L 137.960938 372.277344 L 138.191406 371.796875 L 138.660156 370.828125 L 138.894531 370.339844 L 139.125 369.847656 L 139.359375 369.355469 L 139.59375 368.855469 L 139.828125 368.359375 L 140.0625 367.855469 L 140.292969 367.347656 L 140.761719 366.332031 L 140.996094 365.816406 L 141.226562 365.300781 L 141.460938 364.78125 L 141.695312 364.257812 L 141.929688 363.730469 L 142.160156 363.203125 L 142.628906 362.140625 L 142.863281 361.601562 L 143.09375 361.0625 L 143.5625 359.976562 L 144.03125 358.875 L 144.261719 358.320312 L 144.496094 357.765625 L 144.964844 356.640625 L 145.195312 356.074219 L 145.429688 355.507812 L 145.664062 354.9375 L 145.898438 354.359375 L 146.128906 353.785156 L 146.597656 352.621094 L 146.832031 352.035156 L 147.0625 351.445312 L 147.53125 350.257812 L 147.765625 349.660156 L 147.996094 349.058594 L 148.230469 348.457031 L 148.699219 347.238281 L 148.933594 346.625 L 149.164062 346.011719 L 149.632812 344.769531 L 149.867188 344.144531 L 150.097656 343.519531 L 150.566406 342.253906 L 150.800781 341.617188 L 151.03125 340.980469 L 151.5 339.691406 L 151.734375 339.042969 L 151.964844 338.390625 L 152.199219 337.738281 L 152.433594 337.082031 L 152.667969 336.421875 L 152.902344 335.757812 L 153.132812 335.09375 L 153.835938 333.078125 L 154.066406 332.398438 L 154.300781 331.71875 L 154.535156 331.035156 L 154.769531 330.347656 L 155 329.660156 L 155.234375 328.96875 L 155.46875 328.273438 L 155.703125 327.574219 L 155.933594 326.871094 L 156.167969 326.167969 L 156.402344 325.460938 L 156.636719 324.75 L 156.867188 324.039062 L 157.101562 323.324219 L 157.335938 322.605469 L 157.570312 321.882812 L 157.804688 321.15625 L 158.035156 320.429688 L 158.503906 318.96875 L 158.738281 318.230469 L 158.96875 317.492188 L 159.4375 316.007812 L 159.671875 315.257812 L 159.902344 314.507812 L 160.371094 313 L 160.605469 312.242188 L 160.835938 311.480469 L 161.304688 309.949219 L 161.539062 309.175781 L 161.773438 308.40625 L 162.003906 307.628906 L 162.238281 306.851562 L 162.472656 306.070312 L 162.707031 305.285156 L 162.9375 304.5 L 163.171875 303.707031 L 163.40625 302.917969 L 163.640625 302.121094 L 163.871094 301.324219 L 164.105469 300.523438 L 164.574219 298.914062 L 164.804688 298.105469 L 165.039062 297.296875 L 165.507812 295.664062 L 165.738281 294.847656 L 166.207031 293.199219 L 166.675781 291.542969 L 166.90625 290.710938 L 167.375 289.039062 L 167.609375 288.199219 L 167.839844 287.355469 L 168.074219 286.511719 L 168.308594 285.664062 L 168.542969 284.8125 L 168.773438 283.960938 L 169.242188 282.25 L 169.476562 281.390625 L 169.707031 280.527344 L 169.941406 279.664062 L 170.175781 278.796875 L 170.644531 277.054688 L 170.875 276.179688 L 171.109375 275.304688 L 171.34375 274.425781 L 171.578125 273.542969 L 171.808594 272.660156 L 172.277344 270.886719 L 172.511719 269.996094 L 172.742188 269.101562 L 172.976562 268.207031 L 173.445312 266.410156 L 173.675781 265.507812 L 173.910156 264.605469 L 174.378906 262.792969 L 174.609375 261.882812 L 175.3125 259.140625 L 175.546875 258.21875 L 175.777344 257.300781 L 176.011719 256.378906 L 176.480469 254.527344 L 176.710938 253.597656 L 177.179688 251.738281 L 177.414062 250.804688 L 177.644531 249.867188 L 178.113281 247.992188 L 178.347656 247.050781 L 178.578125 246.105469 L 179.046875 244.214844 L 179.515625 242.316406 L 179.746094 241.367188 L 179.980469 240.414062 L 180.214844 239.457031 L 180.449219 238.503906 L 180.679688 237.542969 L 180.914062 236.585938 L 181.148438 235.625 L 181.382812 234.660156 L 181.613281 233.695312 L 182.082031 231.765625 L 182.316406 230.796875 L 182.546875 229.828125 L 183.25 226.910156 L 183.480469 225.933594 L 184.183594 223.003906 L 184.417969 222.023438 L 184.648438 221.042969 L 185.351562 218.089844 L 185.582031 217.105469 L 185.816406 216.121094 L 186.285156 214.144531 L 186.515625 213.15625 L 187.21875 210.179688 L 187.449219 209.1875 L 187.683594 208.195312 L 188.152344 206.203125 L 188.386719 205.210938 L 188.617188 204.210938 L 189.085938 202.21875 L 189.320312 201.21875 L 189.550781 200.21875 L 190.253906 197.21875 L 190.484375 196.21875 L 190.71875 195.214844 L 190.953125 194.214844 L 191.1875 193.210938 L 191.417969 192.210938 L 192.121094 189.199219 L 192.351562 188.195312 L 193.289062 184.179688 L 193.519531 183.175781 L 194.222656 180.164062 L 194.453125 179.160156 L 195.15625 176.148438 L 195.386719 175.144531 L 195.855469 173.136719 L 196.089844 172.136719 L 196.320312 171.132812 L 196.554688 170.132812 L 196.789062 169.128906 L 197.257812 167.128906 L 197.488281 166.128906 L 197.957031 164.128906 L 198.191406 163.132812 L 198.421875 162.132812 L 199.125 159.144531 L 199.355469 158.148438 L 200.058594 155.171875 L 200.289062 154.179688 L 200.523438 153.1875 L 201.226562 150.222656 L 201.457031 149.238281 L 202.160156 146.285156 L 202.390625 145.304688 L 202.625 144.324219 L 202.859375 143.347656 L 203.09375 142.367188 L 203.324219 141.390625 L 204.027344 138.472656 L 204.257812 137.503906 L 204.726562 135.566406 L 204.960938 134.601562 L 205.191406 133.636719 L 205.660156 131.714844 L 206.128906 129.800781 L 206.359375 128.847656 L 206.828125 126.941406 L 207.0625 125.992188 L 207.292969 125.046875 L 207.761719 123.15625 L 207.996094 122.21875 L 208.226562 121.277344 L 208.460938 120.34375 L 208.695312 119.40625 L 208.929688 118.476562 L 209.160156 117.546875 L 209.394531 116.617188 L 210.097656 113.851562 L 210.328125 112.933594 L 210.796875 111.105469 L 211.03125 110.195312 L 211.261719 109.289062 L 211.496094 108.382812 L 211.730469 107.480469 L 211.964844 106.582031 L 212.195312 105.6875 L 212.429688 104.792969 L 212.898438 103.011719 L 213.128906 102.128906 L 213.363281 101.246094 L 213.597656 100.367188 L 213.832031 99.492188 L 214.0625 98.617188 L 214.296875 97.746094 L 214.53125 96.882812 L 214.765625 96.015625 L 215 95.15625 L 215.230469 94.300781 L 215.464844 93.445312 L 215.699219 92.59375 L 215.933594 91.746094 L 216.164062 90.902344 L 216.398438 90.0625 L 216.632812 89.226562 L 216.867188 88.394531 L 217.097656 87.5625 L 217.566406 85.914062 L 217.800781 85.09375 L 218.03125 84.277344 L 218.265625 83.464844 L 218.734375 81.855469 L 218.96875 81.054688 L 219.199219 80.257812 L 219.433594 79.464844 L 219.667969 78.675781 L 219.902344 77.890625 L 220.132812 77.109375 L 220.367188 76.332031 L 220.601562 75.558594 L 220.835938 74.789062 L 221.066406 74.023438 L 221.535156 72.507812 L 221.769531 71.753906 L 222 71.007812 L 222.234375 70.261719 L 222.46875 69.523438 L 222.703125 68.789062 L 222.933594 68.058594 L 223.167969 67.332031 L 223.402344 66.609375 L 223.636719 65.890625 L 223.871094 65.179688 L 224.101562 64.46875 L 224.335938 63.765625 L 224.570312 63.066406 L 224.804688 62.371094 L 225.035156 61.683594 L 225.269531 60.996094 L 225.503906 60.316406 L 225.738281 59.640625 L 225.96875 58.96875 L 226.203125 58.300781 L 226.4375 57.640625 L 226.671875 56.984375 L 226.902344 56.332031 L 227.136719 55.683594 L 227.371094 55.042969 L 227.605469 54.40625 L 227.839844 53.773438 L 228.070312 53.148438 L 228.304688 52.527344 L 228.539062 51.910156 L 228.773438 51.296875 L 229.003906 50.691406 L 229.238281 50.089844 L 229.472656 49.492188 L 229.707031 48.902344 L 229.9375 48.316406 L 230.40625 47.160156 L 230.640625 46.59375 L 230.871094 46.027344 L 231.105469 45.46875 L 231.339844 44.914062 L 231.574219 44.367188 L 231.804688 43.824219 L 232.039062 43.289062 L 232.273438 42.757812 L 232.507812 42.230469 L 232.742188 41.710938 L 232.972656 41.195312 L 233.207031 40.683594 L 233.675781 39.683594 L 233.90625 39.191406 L 234.375 38.222656 L 234.609375 37.75 L 234.839844 37.28125 L 235.074219 36.816406 L 235.308594 36.359375 L 235.542969 35.90625 L 235.773438 35.460938 L 236.007812 35.019531 L 236.242188 34.585938 L 236.710938 33.734375 L 236.941406 33.320312 L 237.175781 32.910156 L 237.410156 32.503906 L 237.644531 32.105469 L 237.875 31.714844 L 238.109375 31.328125 L 238.34375 30.949219 L 238.578125 30.574219 L 238.808594 30.207031 L 239.042969 29.84375 L 239.277344 29.488281 L 239.511719 29.136719 L 239.742188 28.796875 L 239.976562 28.457031 L 240.445312 27.800781 L 240.675781 27.484375 L 240.910156 27.171875 L 241.144531 26.867188 L 241.378906 26.566406 L 241.613281 26.273438 L 241.84375 25.984375 L 242.078125 25.703125 L 242.3125 25.429688 L 242.546875 25.164062 L 242.777344 24.902344 L 243.011719 24.644531 L 243.246094 24.394531 L 243.480469 24.152344 L 243.710938 23.917969 L 243.945312 23.6875 L 244.179688 23.464844 L 244.414062 23.25 L 244.644531 23.039062 L 244.878906 22.835938 L 245.113281 22.636719 L 245.347656 22.445312 L 245.582031 22.261719 L 245.8125 22.082031 L 246.28125 21.746094 L 246.515625 21.589844 L 246.746094 21.4375 L 246.980469 21.292969 L 247.214844 21.152344 L 247.449219 21.019531 L 247.679688 20.894531 L 247.914062 20.777344 L 248.148438 20.664062 L 248.382812 20.558594 L 248.613281 20.460938 L 248.847656 20.367188 L 249.082031 20.28125 L 249.316406 20.203125 L 249.546875 20.128906 L 249.78125 20.0625 L 250.015625 20.003906 L 250.25 19.949219 L 250.484375 19.902344 L 250.714844 19.863281 L 250.949219 19.832031 L 251.183594 19.804688 L 251.417969 19.785156 L 251.648438 19.769531 L 251.882812 19.765625 L 252.117188 19.765625 L 252.351562 19.769531 L 252.582031 19.785156 L 252.816406 19.804688 L 253.050781 19.832031 L 253.285156 19.863281 L 253.515625 19.902344 L 253.75 19.949219 L 253.984375 20.003906 L 254.21875 20.0625 L 254.453125 20.128906 L 254.683594 20.203125 L 254.917969 20.28125 L 255.152344 20.367188 L 255.386719 20.460938 L 255.617188 20.558594 L 255.851562 20.664062 L 256.085938 20.777344 L 256.320312 20.894531 L 256.550781 21.019531 L 256.785156 21.152344 L 257.019531 21.292969 L 257.253906 21.4375 L 257.484375 21.589844 L 257.71875 21.746094 L 258.1875 22.082031 L 258.417969 22.261719 L 258.652344 22.445312 L 258.886719 22.636719 L 259.121094 22.835938 L 259.355469 23.039062 L 259.585938 23.25 L 259.820312 23.464844 L 260.054688 23.6875 L 260.289062 23.917969 L 260.519531 24.152344 L 260.753906 24.394531 L 260.988281 24.644531 L 261.222656 24.902344 L 261.453125 25.164062 L 261.6875 25.429688 L 261.921875 25.703125 L 262.15625 25.984375 L 262.386719 26.273438 L 262.621094 26.566406 L 262.855469 26.867188 L 263.089844 27.171875 L 263.324219 27.484375 L 263.554688 27.800781 L 264.023438 28.457031 L 264.257812 28.796875 L 264.488281 29.136719 L 264.722656 29.488281 L 264.957031 29.84375 L 265.191406 30.207031 L 265.421875 30.574219 L 265.65625 30.949219 L 265.890625 31.328125 L 266.125 31.714844 L 266.355469 32.105469 L 266.589844 32.503906 L 266.824219 32.910156 L 267.058594 33.320312 L 267.289062 33.734375 L 267.757812 34.585938 L 267.992188 35.019531 L 268.226562 35.460938 L 268.457031 35.90625 L 268.691406 36.359375 L 268.925781 36.816406 L 269.160156 37.28125 L 269.390625 37.75 L 269.625 38.222656 L 270.09375 39.191406 L 270.324219 39.683594 L 270.792969 40.683594 L 271.027344 41.195312 L 271.257812 41.710938 L 271.492188 42.230469 L 271.726562 42.757812 L 271.960938 43.289062 L 272.195312 43.824219 L 272.425781 44.367188 L 272.660156 44.914062 L 272.894531 45.46875 L 273.128906 46.027344 L 273.359375 46.59375 L 273.59375 47.160156 L 274.0625 48.316406 L 274.292969 48.902344 L 274.527344 49.492188 L 274.761719 50.089844 L 274.996094 50.691406 L 275.226562 51.296875 L 275.460938 51.910156 L 275.695312 52.527344 L 275.929688 53.148438 L 276.160156 53.773438 L 276.394531 54.40625 L 276.628906 55.042969 L 276.863281 55.683594 L 277.097656 56.332031 L 277.328125 56.984375 L 277.5625 57.640625 L 277.796875 58.300781 L 278.03125 58.96875 L 278.261719 59.640625 L 278.496094 60.316406 L 278.730469 60.996094 L 278.964844 61.683594 L 279.195312 62.371094 L 279.429688 63.066406 L 279.664062 63.765625 L 279.898438 64.46875 L 280.128906 65.179688 L 280.363281 65.890625 L 280.597656 66.609375 L 280.832031 67.332031 L 281.066406 68.058594 L 281.296875 68.789062 L 281.53125 69.523438 L 281.765625 70.261719 L 282 71.007812 L 282.230469 71.753906 L 282.464844 72.507812 L 282.933594 74.023438 L 283.164062 74.789062 L 283.398438 75.558594 L 283.632812 76.332031 L 283.867188 77.109375 L 284.097656 77.890625 L 284.332031 78.675781 L 284.566406 79.464844 L 284.800781 80.257812 L 285.03125 81.054688 L 285.265625 81.855469 L 285.734375 83.464844 L 285.96875 84.277344 L 286.199219 85.09375 L 286.433594 85.914062 L 286.902344 87.5625 L 287.132812 88.394531 L 287.367188 89.226562 L 287.601562 90.0625 L 287.835938 90.902344 L 288.066406 91.746094 L 288.300781 92.59375 L 288.535156 93.445312 L 288.769531 94.300781 L 289 95.15625 L 289.234375 96.015625 L 289.46875 96.882812 L 289.703125 97.746094 L 289.9375 98.617188 L 290.167969 99.492188 L 290.402344 100.367188 L 290.636719 101.246094 L 290.871094 102.128906 L 291.101562 103.011719 L 291.570312 104.792969 L 291.804688 105.6875 L 292.035156 106.582031 L 292.269531 107.480469 L 292.503906 108.382812 L 292.738281 109.289062 L 292.96875 110.195312 L 293.203125 111.105469 L 293.671875 112.933594 L 293.902344 113.851562 L 294.605469 116.617188 L 294.839844 117.546875 L 295.070312 118.476562 L 295.304688 119.40625 L 295.539062 120.34375 L 295.773438 121.277344 L 296.003906 122.21875 L 296.238281 123.15625 L 296.707031 125.046875 L 296.9375 125.992188 L 297.171875 126.941406 L 297.640625 128.847656 L 297.871094 129.800781 L 298.339844 131.714844 L 298.808594 133.636719 L 299.039062 134.601562 L 299.273438 135.566406 L 299.742188 137.503906 L 299.972656 138.472656 L 300.675781 141.390625 L 300.90625 142.367188 L 301.140625 143.347656 L 301.375 144.324219 L 301.609375 145.304688 L 301.839844 146.285156 L 302.542969 149.238281 L 302.773438 150.222656 L 303.476562 153.1875 L 303.710938 154.179688 L 303.941406 155.171875 L 304.644531 158.148438 L 304.875 159.144531 L 305.578125 162.132812 L 305.808594 163.132812 L 306.042969 164.128906 L 306.511719 166.128906 L 306.742188 167.128906 L 307.210938 169.128906 L 307.445312 170.132812 L 307.679688 171.132812 L 307.910156 172.136719 L 308.144531 173.136719 L 308.613281 175.144531 L 308.84375 176.148438 L 309.546875 179.160156 L 309.777344 180.164062 L 310.480469 183.175781 L 310.710938 184.179688 L 311.648438 188.195312 L 311.878906 189.199219 L 312.582031 192.210938 L 312.8125 193.210938 L 313.046875 194.214844 L 313.28125 195.214844 L 313.515625 196.21875 L 313.746094 197.21875 L 314.449219 200.21875 L 314.679688 201.21875 L 314.914062 202.21875 L 315.382812 204.210938 L 315.613281 205.210938 L 315.847656 206.203125 L 316.316406 208.195312 L 316.550781 209.1875 L 316.78125 210.179688 L 317.484375 213.15625 L 317.714844 214.144531 L 318.183594 216.121094 L 318.417969 217.105469 L 318.648438 218.089844 L 319.351562 221.042969 L 319.582031 222.023438 L 319.816406 223.003906 L 320.519531 225.933594 L 320.75 226.910156 L 321.453125 229.828125 L 321.683594 230.796875 L 321.917969 231.765625 L 322.386719 233.695312 L 322.617188 234.660156 L 322.851562 235.625 L 323.085938 236.585938 L 323.320312 237.542969 L 323.550781 238.503906 L 323.785156 239.457031 L 324.019531 240.414062 L 324.253906 241.367188 L 324.484375 242.316406 L 324.953125 244.214844 L 325.421875 246.105469 L 325.652344 247.050781 L 325.886719 247.992188 L 326.355469 249.867188 L 326.585938 250.804688 L 326.820312 251.738281 L 327.289062 253.597656 L 327.519531 254.527344 L 327.988281 256.378906 L 328.222656 257.300781 L 328.453125 258.21875 L 328.6875 259.140625 L 329.390625 261.882812 L 329.621094 262.792969 L 330.089844 264.605469 L 330.324219 265.507812 L 330.554688 266.410156 L 331.023438 268.207031 L 331.257812 269.101562 L 331.488281 269.996094 L 331.722656 270.886719 L 332.191406 272.660156 L 332.421875 273.542969 L 332.65625 274.425781 L 332.890625 275.304688 L 333.125 276.179688 L 333.355469 277.054688 L 333.824219 278.796875 L 334.058594 279.664062 L 334.292969 280.527344 L 334.523438 281.390625 L 334.757812 282.25 L 335.226562 283.960938 L 335.457031 284.8125 L 335.691406 285.664062 L 335.925781 286.511719 L 336.160156 287.355469 L 336.390625 288.199219 L 336.625 289.039062 L 337.09375 290.710938 L 337.324219 291.542969 L 337.792969 293.199219 L 338.261719 294.847656 L 338.492188 295.664062 L 338.960938 297.296875 L 339.195312 298.105469 L 339.425781 298.914062 L 339.894531 300.523438 L 340.128906 301.324219 L 340.359375 302.121094 L 340.59375 302.917969 L 340.828125 303.707031 L 341.0625 304.5 L 341.292969 305.285156 L 341.527344 306.070312 L 341.761719 306.851562 L 341.996094 307.628906 L 342.226562 308.40625 L 342.460938 309.175781 L 342.695312 309.949219 L 343.164062 311.480469 L 343.394531 312.242188 L 343.628906 313 L 344.097656 314.507812 L 344.328125 315.257812 L 344.5625 316.007812 L 345.03125 317.492188 L 345.261719 318.230469 L 345.496094 318.96875 L 345.964844 320.429688 L 346.195312 321.15625 L 346.429688 321.882812 L 346.664062 322.605469 L 346.898438 323.324219 L 347.132812 324.039062 L 347.363281 324.75 L 347.597656 325.460938 L 347.832031 326.167969 L 348.066406 326.871094 L 348.296875 327.574219 L 348.53125 328.273438 L 348.765625 328.96875 L 349 329.660156 L 349.230469 330.347656 L 349.464844 331.035156 L 349.699219 331.71875 L 349.933594 332.398438 L 350.164062 333.078125 L 350.867188 335.09375 L 351.097656 335.757812 L 351.332031 336.421875 L 351.566406 337.082031 L 351.800781 337.738281 L 352.035156 338.390625 L 352.265625 339.042969 L 352.5 339.691406 L 352.96875 340.980469 L 353.199219 341.617188 L 353.433594 342.253906 L 353.902344 343.519531 L 354.132812 344.144531 L 354.367188 344.769531 L 354.835938 346.011719 L 355.066406 346.625 L 355.300781 347.238281 L 355.769531 348.457031 L 356.003906 349.058594 L 356.234375 349.660156 L 356.46875 350.257812 L 356.9375 351.445312 L 357.167969 352.035156 L 357.402344 352.621094 L 357.871094 353.785156 L 358.101562 354.359375 L 358.335938 354.9375 L 358.570312 355.507812 L 358.804688 356.074219 L 359.035156 356.640625 L 359.503906 357.765625 L 359.738281 358.320312 L 359.96875 358.875 L 360.4375 359.976562 L 360.90625 361.0625 L 361.136719 361.601562 L 361.371094 362.140625 L 361.839844 363.203125 L 362.070312 363.730469 L 362.304688 364.257812 L 362.539062 364.78125 L 362.773438 365.300781 L 363.003906 365.816406 L 363.238281 366.332031 L 363.707031 367.347656 L 363.9375 367.855469 L 364.171875 368.359375 L 364.40625 368.855469 L 364.640625 369.355469 L 364.875 369.847656 L 365.105469 370.339844 L 365.339844 370.828125 L 365.808594 371.796875 L 366.039062 372.277344 L 366.507812 373.230469 L 366.742188 373.703125 L 366.972656 374.171875 L 367.441406 375.101562 L 367.675781 375.5625 L 367.90625 376.019531 L 368.140625 376.476562 L 368.375 376.929688 L 368.609375 377.378906 L 368.839844 377.828125 L 369.074219 378.269531 L 369.308594 378.714844 L 369.777344 379.589844 L 370.007812 380.023438 L 370.476562 380.882812 L 370.710938 381.308594 L 370.941406 381.734375 L 371.175781 382.15625 L 371.410156 382.574219 L 371.644531 382.988281 L 371.875 383.402344 L 372.109375 383.8125 L 372.578125 384.625 L 372.808594 385.027344 L 373.042969 385.429688 L 373.277344 385.828125 L 373.511719 386.222656 L 373.746094 386.613281 L 373.976562 387.003906 L 374.445312 387.777344 L 374.679688 388.160156 L 374.910156 388.539062 L 375.144531 388.917969 L 375.613281 389.667969 L 375.84375 390.035156 L 376.078125 390.40625 L 376.546875 391.132812 L 376.777344 391.492188 L 377.011719 391.851562 L 377.480469 392.5625 L 377.710938 392.914062 L 378.179688 393.609375 L 378.414062 393.953125 L 378.648438 394.292969 L 378.878906 394.632812 L 379.347656 395.304688 L 379.582031 395.636719 L 379.8125 395.964844 L 380.28125 396.621094 L 380.515625 396.941406 L 380.746094 397.265625 L 381.449219 398.214844 L 381.679688 398.527344 L 382.148438 399.144531 L 382.617188 399.753906 L 382.847656 400.054688 L 383.550781 400.945312 L 383.78125 401.238281 L 384.25 401.816406 L 384.484375 402.101562 L 384.714844 402.386719 L 385.183594 402.949219 L 385.417969 403.226562 L 385.648438 403.503906 L 385.882812 403.777344 L 386.351562 404.316406 L 386.582031 404.585938 L 386.816406 404.851562 L 387.519531 405.636719 L 387.75 405.894531 L 387.984375 406.152344 L 388.21875 406.40625 L 388.453125 406.65625 L 388.683594 406.90625 L 388.917969 407.15625 L 389.152344 407.402344 L 389.386719 407.644531 L 389.617188 407.886719 L 389.851562 408.128906 L 390.320312 408.605469 L 390.550781 408.839844 L 390.785156 409.074219 L 391.253906 409.535156 L 391.488281 409.761719 L 391.71875 409.988281 L 392.421875 410.65625 L 392.652344 410.875 L 392.886719 411.09375 L 393.355469 411.523438 L 393.585938 411.734375 L 393.820312 411.945312 L 394.289062 412.359375 L 394.519531 412.566406 L 394.988281 412.972656 L 395.222656 413.171875 L 395.453125 413.371094 L 396.15625 413.957031 L 396.390625 414.148438 L 396.621094 414.339844 L 397.324219 414.902344 L 397.554688 415.085938 L 398.023438 415.453125 L 398.257812 415.632812 L 398.488281 415.808594 L 399.191406 416.335938 L 399.421875 416.507812 L 399.65625 416.679688 L 400.359375 417.183594 L 400.589844 417.347656 L 401.058594 417.675781 L 401.292969 417.835938 L 401.523438 417.996094 L 402.226562 418.464844 L 402.457031 418.621094 L 402.691406 418.773438 L 402.925781 418.921875 L 403.160156 419.074219 L 403.390625 419.222656 L 403.625 419.371094 L 404.09375 419.660156 L 404.324219 419.804688 L 405.261719 420.367188 L 405.492188 420.503906 L 405.726562 420.640625 L 406.195312 420.90625 L 406.425781 421.039062 L 406.660156 421.171875 L 407.128906 421.429688 L 407.359375 421.558594 L 408.0625 421.933594 L 408.292969 422.058594 L 408.761719 422.300781 L 408.996094 422.417969 L 409.230469 422.539062 L 409.460938 422.65625 L 409.695312 422.773438 L 410.164062 423 L 410.394531 423.113281 L 410.863281 423.339844 L 411.097656 423.449219 L 411.328125 423.558594 L 411.5625 423.664062 L 411.796875 423.773438 L 412.03125 423.878906 L 412.261719 423.984375 L 412.496094 424.085938 L 412.730469 424.191406 L 412.964844 424.292969 L 413.195312 424.394531 L 413.664062 424.589844 L 413.898438 424.691406 L 414.132812 424.785156 L 414.363281 424.882812 L 414.597656 424.980469 L 415.066406 425.167969 L 415.296875 425.257812 L 415.53125 425.351562 L 416 425.53125 L 416.230469 425.621094 L 416.464844 425.707031 L 416.699219 425.796875 L 416.933594 425.882812 L 417.164062 425.96875 L 417.398438 426.050781 L 417.632812 426.136719 L 418.101562 426.300781 L 418.332031 426.382812 L 418.566406 426.464844 L 419.035156 426.621094 L 419.265625 426.699219 L 419.734375 426.855469 L 419.96875 426.929688 L 420.199219 427.003906 L 420.902344 427.226562 L 421.132812 427.296875 L 421.367188 427.371094 L 421.835938 427.511719 L 422.070312 427.578125 L 422.300781 427.648438 L 422.535156 427.714844 L 422.769531 427.785156 L 423.003906 427.851562 L 423.234375 427.914062 L 423.46875 427.980469 L 423.703125 428.042969 L 423.9375 428.109375 L 424.167969 428.171875 L 424.636719 428.296875 L 424.871094 428.355469 L 425.101562 428.417969 L 425.804688 428.59375 L 426.035156 428.652344 L 426.269531 428.710938 L 426.503906 428.765625 L 426.738281 428.824219 L 426.972656 428.878906 L 427.203125 428.933594 L 427.671875 429.042969 L 427.90625 429.09375 L 428.136719 429.148438 L 428.839844 429.300781 L 429.070312 429.351562 L 429.539062 429.453125 L 429.773438 429.5 L 430.003906 429.550781 L 430.941406 429.738281 L 431.171875 429.78125 L 431.40625 429.828125 L 431.640625 429.871094 L 431.875 429.917969 L 432.105469 429.960938 L 432.808594 430.089844 L 433.039062 430.128906 L 433.507812 430.214844 L 433.742188 430.253906 L 433.972656 430.292969 L 434.675781 430.410156 L 434.90625 430.449219 L 435.140625 430.488281 L 435.375 430.523438 L 435.609375 430.5625 L 435.84375 430.597656 L 436.074219 430.632812 L 436.308594 430.671875 L 436.777344 430.742188 L 437.007812 430.773438 L 437.476562 430.84375 L 437.710938 430.875 L 437.941406 430.910156 L 438.410156 430.972656 L 438.644531 431.007812 L 438.875 431.039062 L 439.109375 431.070312 L 439.34375 431.097656 L 439.8125 431.160156 L 440.042969 431.191406 L 440.277344 431.21875 L 440.511719 431.25 L 440.746094 431.277344 L 440.976562 431.304688 L 441.679688 431.386719 L 441.910156 431.414062 L 442.613281 431.496094 L 442.84375 431.519531 L 443.078125 431.546875 L 443.3125 431.570312 L 443.546875 431.597656 L 443.777344 431.621094 L 444.714844 431.714844 L 444.945312 431.738281 L 445.648438 431.808594 L 445.878906 431.828125 L 446.347656 431.875 L 446.582031 431.894531 L 446.8125 431.914062 L 447.046875 431.9375 L 447.515625 431.976562 L 447.746094 431.996094 L 448.683594 432.074219 L 448.914062 432.09375 L 449.382812 432.132812 L 449.617188 432.148438 L 449.847656 432.167969 L 450.082031 432.183594 L 450.316406 432.203125 L 450.550781 432.21875 L 450.78125 432.238281 L 451.484375 432.285156 L 451.714844 432.304688 L 452.417969 432.351562 L 452.648438 432.367188 L 452.882812 432.382812 L 453.117188 432.394531 L 453.585938 432.425781 L 453.816406 432.441406 L 454.050781 432.453125 L 454.519531 432.484375 L 454.75 432.496094 L 454.984375 432.511719 L 455.453125 432.535156 L 455.683594 432.550781 L 456.152344 432.574219 L 456.386719 432.589844 L 456.617188 432.601562 L 457.554688 432.648438 L 457.785156 432.660156 L 458.488281 432.695312 L 458.71875 432.707031 L 458.953125 432.714844 L 459.421875 432.738281 L 459.652344 432.75 L 459.886719 432.757812 L 460.355469 432.78125 L 460.585938 432.789062 L 460.820312 432.800781 L 461.054688 432.808594 L 461.289062 432.820312 L 461.519531 432.828125 L 461.753906 432.835938 L 461.988281 432.847656 L 462.457031 432.863281 L 462.6875 432.875 L 463.390625 432.898438 L 463.621094 432.90625 L 463.855469 432.914062 L 464.089844 432.925781 L 464.324219 432.933594 L 464.554688 432.941406 L 465.257812 432.964844 L 465.488281 432.972656 L 465.722656 432.976562 L 466.425781 433 L 466.65625 433.007812 L 466.890625 433.015625 L 467.125 433.019531 L 467.359375 433.027344 L 467.589844 433.035156 L 467.824219 433.039062 L 468.292969 433.054688 L 468.523438 433.058594 L 468.757812 433.066406 L 468.992188 433.070312 L 469.226562 433.078125 L 469.457031 433.085938 L 469.691406 433.089844 L 469.925781 433.097656 L 470.160156 433.101562 L 470.390625 433.105469 L 470.625 433.113281 L 470.859375 433.117188 L 471.09375 433.125 L 471.328125 433.128906 L 471.558594 433.132812 L 471.792969 433.140625 L 472.261719 433.148438 L 472.492188 433.15625 L 473.195312 433.167969 L 473.425781 433.175781 L 474.128906 433.1875 L 474.359375 433.191406 L 474.828125 433.199219 L 475.0625 433.207031 L 475.296875 433.210938 L 475.527344 433.214844 L 476.230469 433.226562 L 476.460938 433.230469 L 477.164062 433.242188 L 477.394531 433.246094 L 477.628906 433.25 L 477.863281 433.25 L 478.097656 433.253906 L 478.328125 433.257812 L 479.03125 433.269531 L 479.261719 433.273438 L 479.496094 433.277344 L 479.730469 433.277344 L 480.199219 433.285156 L 480.429688 433.289062 L 480.664062 433.289062 L 481.132812 433.296875 L 481.363281 433.300781 L 481.597656 433.300781 L 482.066406 433.308594 L 482.296875 433.3125 L 482.53125 433.3125 L 483 433.320312 L 483.230469 433.320312 L 483.699219 433.328125 L 483.933594 433.328125 L 484.167969 433.332031 L 484.398438 433.332031 L 484.867188 433.339844 L 485.101562 433.339844 L 485.332031 433.34375 "/>
<path style="fill:none;stroke-width:0.75;stroke-linecap:round;stroke-linejoin:round;stroke:rgb(0%,0%,0%);stroke-opacity:1;stroke-miterlimit:10;" d="M 18.667969 433.480469 L 485.332031 433.480469 "/>
</g>
</svg>
