<?xml version="1.0" encoding="UTF-8" standalone="no"?>
<!-- Created with Inkscape (http://www.inkscape.org/) -->

<svg
   xmlns:dc="http://purl.org/dc/elements/1.1/"
   xmlns:cc="http://creativecommons.org/ns#"
   xmlns:rdf="http://www.w3.org/1999/02/22-rdf-syntax-ns#"
   xmlns:svg="http://www.w3.org/2000/svg"
   xmlns="http://www.w3.org/2000/svg"
   xmlns:sodipodi="http://sodipodi.sourceforge.net/DTD/sodipodi-0.dtd"
   xmlns:inkscape="http://www.inkscape.org/namespaces/inkscape"
   width="197mm"
   height="65mm"
   viewBox="0 0 197 65"
   version="1.1"
   id="svg4556"
   sodipodi:docname="GMRF3.svg"
   inkscape:version="0.92.0 r">
  <defs
     id="defs4550" />
  <sodipodi:namedview
     id="base"
     pagecolor="#ffffff"
     bordercolor="#666666"
     borderopacity="1.0"
     inkscape:pageopacity="0.0"
     inkscape:pageshadow="2"
     inkscape:zoom="4.2528182"
     inkscape:cx="382.67762"
     inkscape:cy="81.344582"
     inkscape:document-units="mm"
     inkscape:current-layer="layer1"
     showgrid="false"
     inkscape:window-width="1440"
     inkscape:window-height="813"
     inkscape:window-x="0"
     inkscape:window-y="23"
     inkscape:window-maximized="0"
     showguides="true"
     inkscape:guide-bbox="true">
    <sodipodi:guide
       position="94.878563,17.83717"
       orientation="1,0"
       id="guide5149"
       inkscape:locked="false" />
    <sodipodi:guide
       position="-17.481548,123.59762"
       orientation="0,1"
       id="guide5186"
       inkscape:locked="false" />
    <sodipodi:guide
       position="55.818276,61.338765"
       orientation="0,1"
       id="guide5883"
       inkscape:locked="false" />
    <sodipodi:guide
       position="107.95623,58.72546"
       orientation="1,0"
       id="guide5889"
       inkscape:locked="false" />
    <sodipodi:guide
       position="55.358236,20.85518"
       orientation="0,1"
       id="guide5908"
       inkscape:locked="false" />
    <sodipodi:guide
       position="42.170401,9.0474679"
       orientation="0,1"
       id="guide6173"
       inkscape:locked="false" />
  </sodipodi:namedview>
  <metadata
     id="metadata4553">
    <rdf:RDF>
      <cc:Work
         rdf:about="">
        <dc:format>image/svg+xml</dc:format>
        <dc:type
           rdf:resource="http://purl.org/dc/dcmitype/StillImage" />
        <dc:title />
      </cc:Work>
    </rdf:RDF>
  </metadata>
  <g
     inkscape:label="Calque 1"
     inkscape:groupmode="layer"
     id="layer1"
     transform="translate(0,-232)">
    <rect
       style="opacity:1;fill:#000000;fill-opacity:1;stroke:#000000;stroke-width:0.71658337;stroke-miterlimit:4;stroke-dasharray:none;stroke-dashoffset:25.60450172;stroke-opacity:1"
       id="rect5103"
       width="188.67709"
       height="0.2974613"
       x="4.4621458"
       y="284.74149" />
    <circle
       style="opacity:1;fill:#8a8ada;fill-opacity:0.97254902;stroke:#000000;stroke-width:0.80900002;stroke-miterlimit:4;stroke-dasharray:none;stroke-dashoffset:25.60450172;stroke-opacity:1"
       id="path5105"
       cx="108.10083"
       cy="283.99573"
       r="3.4124033" />
    <path
       inkscape:connector-curvature="0"
       style="fill:#8a8ada;fill-opacity:0.97206708;stroke:#8a8ada;stroke-width:0.495;stroke-linecap:round;stroke-linejoin:round;stroke-miterlimit:10;stroke-dasharray:none;stroke-opacity:0.97765347"
       d="m 48.538474,274.33489 0.04732,-2.4e-4 h 0.04812 l 0.09624,-6.9e-4 h 0.04732 l 0.04812,-2.3e-4 h 0.04812 l 0.09624,-6.9e-4 h 0.04732 l 0.09624,-7e-4 h 0.04812 l 0.04732,-2.4e-4 0.09624,-6.9e-4 h 0.04812 l 0.04732,-2.3e-4 0.09624,-7e-4 h 0.04812 l 0.04732,-2.3e-4 0.09624,-6.9e-4 h 0.04812 l 0.04812,-2.4e-4 0.04732,-2.3e-4 0.144354,-7e-4 0.04732,-2.3e-4 0.04812,-2.3e-4 h 0.04812 l 0.04812,-2.4e-4 0.04732,-2.3e-4 0.144355,-7e-4 0.04732,-2.3e-4 0.144356,-6.9e-4 0.04732,-2.3e-4 0.04812,-2.4e-4 0.04812,-7e-4 0.09624,-6.9e-4 0.04732,-2.3e-4 0.144354,-6.9e-4 0.04732,-7e-4 0.144354,-6.9e-4 0.04732,-6.9e-4 0.09624,-7e-4 0.04812,-6.9e-4 0.04732,-2.3e-4 0.04812,-2.4e-4 0.04812,-7e-4 0.04812,-2.3e-4 0.04812,-6.9e-4 0.04732,-2.3e-4 0.04812,-2.4e-4 0.04812,-7e-4 0.04812,-2.3e-4 0.04732,-6.8e-4 0.04812,-7e-4 0.04812,-2.4e-4 0.04812,-6.9e-4 0.04732,-2.3e-4 0.09624,-10e-4 0.04812,-2.4e-4 0.04732,-6.8e-4 0.04812,-7e-4 0.04812,-2.4e-4 0.04812,-6.9e-4 0.04732,-6.9e-4 0.144356,-0.002 0.04812,-2.3e-4 0.04732,-7e-4 0.144354,-0.002 0.04732,-6.9e-4 0.04812,-7e-4 0.04812,-6.9e-4 0.04812,-6.9e-4 0.04732,-6.9e-4 0.144355,-0.002 0.04732,-6.9e-4 0.09624,-0.001 0.04812,-7e-4 0.04812,-6.9e-4 0.04732,-6.9e-4 0.04812,-7e-4 0.04812,-6.9e-4 0.04812,-6.9e-4 0.04732,-7e-4 0.09624,-0.002 0.04812,-6.9e-4 0.04732,-7e-4 0.09624,-0.002 0.04812,-6.9e-4 0.04732,-6.9e-4 0.144353,-0.003 0.04732,-6.9e-4 0.192472,-0.004 0.04732,-6.9e-4 0.04812,-10e-4 0.09624,-0.002 0.04732,-10e-4 0.09623,-0.002 0.04812,-10e-4 0.04733,-6.9e-4 0.09624,-0.003 0.04812,-6.9e-4 0.04732,-10e-4 0.09624,-0.003 0.04812,-7e-4 0.04812,-10e-4 0.04732,-0.001 0.144354,-0.004 0.04732,-0.001 0.144355,-0.004 0.04732,-0.001 0.04812,-10e-4 0.04812,-0.001 0.04812,-10e-4 0.04732,-10e-4 0.04812,-0.001 0.09624,-0.003 0.04732,-10e-4 0.192472,-0.006 0.04732,-10e-4 0.09624,-0.003 0.04812,-0.002 0.04732,-0.001 0.04812,-10e-4 0.09624,-0.004 0.04732,-10e-4 0.144354,-0.006 0.04732,-0.002 0.192472,-0.008 0.04733,-0.002 0.04812,-0.002 0.04812,-0.002 0.04812,-0.002 0.04733,-0.002 0.144354,-0.007 0.04732,-0.002 0.144354,-0.007 0.04732,-0.002 0.04812,-0.002 0.04812,-0.003 0.04812,-0.002 0.04732,-0.003 0.09624,-0.005 0.04812,-0.002 0.04812,-0.003 0.04733,-0.003 0.04812,-0.003 0.09623,-0.005 0.04732,-0.003 0.04812,-0.003 0.09624,-0.006 0.04732,-0.003 0.09624,-0.006 0.04812,-0.003 0.04732,-0.003 0.04812,-0.003 0.04812,-0.003 0.04812,-0.003 0.04812,-0.003 0.04732,-0.003 0.144354,-0.0101 0.04732,-0.003 0.04812,-0.003 0.09624,-0.007 0.04733,-0.003 0.144354,-0.0106 0.04733,-0.003 0.04812,-0.004 0.04812,-0.003 0.04812,-0.004 0.04732,-0.003 0.192472,-0.0155 0.04732,-0.004 0.04812,-0.004 0.09623,-0.008 0.04732,-0.004 0.144354,-0.0126 0.04732,-0.005 0.04812,-0.004 0.09623,-0.009 0.04733,-0.005 0.04812,-0.005 0.04812,-0.005 0.04812,-0.005 0.04812,-0.005 0.04732,-0.005 0.144354,-0.0145 0.04732,-0.005 0.04812,-0.005 0.09624,-0.0104 0.04732,-0.005 0.04812,-0.006 0.04812,-0.005 0.04812,-0.006 0.04732,-0.005 0.04812,-0.006 0.04812,-0.006 0.04812,-0.006 0.04733,-0.006 0.04812,-0.006 0.09623,-0.0116 0.04812,-0.006 0.04732,-0.006 0.144354,-0.0184 0.04732,-0.006 0.04812,-0.006 0.09623,-0.0129 0.04732,-0.006 0.09623,-0.0129 0.04812,-0.007 0.04732,-0.007 0.09623,-0.0136 0.04812,-0.007 0.04812,-0.007 0.04732,-0.007 0.04812,-0.007 0.04812,-0.007 0.04812,-0.007 0.04733,-0.007 0.09624,-0.0149 0.04812,-0.008 0.04732,-0.007 0.09624,-0.0155 0.04812,-0.008 0.04732,-0.008 0.04812,-0.008 0.04812,-0.008 0.09624,-0.0161 0.04732,-0.008 0.04812,-0.008 0.04812,-0.009 0.04812,-0.008 0.04732,-0.009 0.04812,-0.009 0.04812,-0.009 0.04812,-0.009 0.04733,-0.009 0.04812,-0.009 0.09623,-0.0186 0.04733,-0.009 0.09623,-0.0187 0.04812,-0.0101 0.04732,-0.01 0.04812,-0.0101 0.04812,-0.0101 0.09624,-0.0199 0.04732,-0.0104 0.144353,-0.0309 0.04732,-0.0106 0.09623,-0.0213 0.04812,-0.011 0.04732,-0.011 0.09624,-0.0219 0.04812,-0.0113 0.04732,-0.0113 0.192471,-0.0464 0.04733,-0.012 0.09624,-0.0238 0.04812,-0.0123 0.04732,-0.0123 0.04813,-0.0126 0.04812,-0.0123 0.04812,-0.0126 0.04732,-0.0129 0.144355,-0.0387 0.04732,-0.0133 0.04813,-0.0133 0.09623,-0.0271 0.04732,-0.0135 0.144352,-0.0416 0.04813,-0.0142 0.04732,-0.0142 0.144357,-0.0435 0.04732,-0.0145 0.04812,-0.0148 0.09624,-0.0302 0.04733,-0.0152 0.144353,-0.0463 0.04733,-0.0158 0.04812,-0.0158 0.144357,-0.0482 0.04732,-0.0164 0.04812,-0.0164 0.09623,-0.0335 0.04733,-0.0171 0.09623,-0.0342 0.04812,-0.0174 0.04732,-0.0174 0.09623,-0.0354 0.04812,-0.018 0.04732,-0.018 0.144355,-0.0551 0.04732,-0.0187 0.04812,-0.0187 0.09624,-0.038 0.04813,-0.0193 0.04732,-0.0193 0.09624,-0.0393 0.04812,-0.0199 0.04732,-0.02 0.04812,-0.02 0.04812,-0.0203 0.04812,-0.0206 0.04733,-0.0206 0.04812,-0.0206 0.04812,-0.0209 0.04812,-0.0213 0.04732,-0.0213 0.144354,-0.0647 0.04812,-0.0219 0.04733,-0.0222 0.09624,-0.0445 0.04812,-0.0226 0.04732,-0.0229 0.04813,-0.0229 0.09623,-0.0463 0.04732,-0.0235 0.04812,-0.0235 0.09623,-0.0476 0.04732,-0.0242 0.144352,-0.0735 0.04733,-0.0248 0.09624,-0.0503 0.09623,-0.051 0.04732,-0.0257 0.144356,-0.0783 0.04732,-0.0267 0.04812,-0.0264 0.09624,-0.0541 0.04733,-0.027 0.04812,-0.0273 0.09624,-0.0555 0.04732,-0.028 0.04812,-0.0279 0.04812,-0.0284 0.09624,-0.0573 0.04733,-0.0291 0.09624,-0.0586 0.04812,-0.0297 0.04733,-0.0297 0.09624,-0.0599 0.04812,-0.0307 0.04732,-0.0302 0.09623,-0.0619 0.04812,-0.0313 0.04732,-0.0312 0.04813,-0.0316 0.09624,-0.0638 0.04732,-0.0322 0.04812,-0.0323 0.04813,-0.0325 0.04812,-0.0329 0.04812,-0.0332 0.04732,-0.0332 0.09623,-0.067 0.04813,-0.0339 0.04732,-0.0342 0.04812,-0.0342 0.04812,-0.0345 0.04812,-0.0348 0.04733,-0.0352 0.04812,-0.0352 0.09624,-0.0709 0.04733,-0.0358 0.09624,-0.0722 0.04812,-0.0367 0.04812,-0.0364 0.04732,-0.0371 0.04812,-0.0371 0.04812,-0.0374 0.04812,-0.0377 0.04733,-0.0377 0.04812,-0.038 0.09624,-0.0767 0.04732,-0.0387 0.04813,-0.039 0.09624,-0.0786 0.04732,-0.0396 0.09624,-0.0799 0.04812,-0.0402 0.04732,-0.0406 0.04812,-0.0406 0.04812,-0.0412 0.04812,-0.0409 0.04812,-0.0416 0.04732,-0.0418 0.09623,-0.0837 0.04812,-0.0425 0.04732,-0.0425 0.04812,-0.0428 0.04812,-0.0431 0.04812,-0.0435 0.04732,-0.0435 0.09624,-0.0876 0.04812,-0.0445 0.04733,-0.0444 0.09623,-0.0896 0.09624,-0.0908 0.04732,-0.0457 0.04812,-0.0457 0.09624,-0.0928 0.04733,-0.0467 0.04812,-0.0467 0.04812,-0.047 0.04812,-0.0476 0.04733,-0.0473 0.09624,-0.096 0.04812,-0.0483 0.04732,-0.0487 0.09624,-0.0979 0.04812,-0.0492 0.04732,-0.0496 0.04813,-0.0497 0.09624,-0.10051 0.04812,-0.0505 0.04732,-0.0506 0.09624,-0.10244 0.04812,-0.0516 0.04732,-0.0516 0.09624,-0.10436 0.04812,-0.0525 0.04732,-0.0526 0.09624,-0.10629 0.04812,-0.0535 0.04733,-0.0538 0.04812,-0.0538 0.04812,-0.0541 0.04812,-0.0545 0.04812,-0.0548 0.04732,-0.0548 0.144356,-0.16622 0.04732,-0.0561 0.04812,-0.0561 0.04812,-0.0563 0.04812,-0.0567 0.04733,-0.0567 0.04812,-0.057 0.04812,-0.0573 0.04812,-0.0577 0.04732,-0.058 0.04813,-0.058 0.04812,-0.0583 0.04812,-0.0586 0.04732,-0.0586 0.04812,-0.059 0.04812,-0.0592 0.04812,-0.0596 0.04812,-0.0599 0.04733,-0.0599 0.09624,-0.12047 0.04812,-0.0609 0.04732,-0.0609 0.09624,-0.1224 0.04812,-0.0619 0.04732,-0.0619 0.09624,-0.12434 0.04812,-0.0625 0.04732,-0.0628 0.09623,-0.12627 0.04812,-0.0638 0.04812,-0.0635 0.04732,-0.0641 0.04812,-0.0641 0.04812,-0.0644 0.04812,-0.0647 0.04732,-0.0647 0.04812,-0.0654 0.04812,-0.065 0.04812,-0.0657 0.04732,-0.0657 0.04812,-0.066 0.09623,-0.13271 0.04733,-0.0666 0.04812,-0.0666 0.09624,-0.13465 0.04732,-0.0673 0.09624,-0.13592 0.09624,-0.13657 0.04733,-0.0686 0.09624,-0.13786 0.04812,-0.0692 0.04732,-0.0695 0.04812,-0.0696 0.04812,-0.0699 0.04812,-0.0702 0.04732,-0.0703 0.09624,-0.14108 0.04812,-0.0709 0.04732,-0.0711 0.04812,-0.0712 0.04812,-0.0715 0.09624,-0.14367 0.04732,-0.0722 0.04812,-0.0722 0.04812,-0.0725 0.04812,-0.0728 0.04732,-0.0728 0.09624,-0.14622 0.04812,-0.0735 0.04732,-0.0738 0.04812,-0.0738 0.09623,-0.14817 0.04733,-0.0744 0.04812,-0.0744 0.09624,-0.14947 0.04732,-0.0751 0.144356,-0.22611 0.04812,-0.076 0.04733,-0.0757 0.04812,-0.076 0.09624,-0.15268 0.04733,-0.0767 0.09624,-0.15331 0.04812,-0.077 0.04732,-0.0773 0.09624,-0.1546 0.04812,-0.0776 0.04732,-0.078 0.09624,-0.1559 0.09624,-0.15654 0.04732,-0.0783 0.04812,-0.0786 0.04812,-0.0789 0.04812,-0.0786 0.04732,-0.0792 0.04812,-0.0789 0.04812,-0.0792 0.04812,-0.0796 0.04732,-0.0796 0.09623,-0.15912 0.04812,-0.0799 0.04732,-0.0799 0.144355,-0.24062 0.04733,-0.0805 0.144352,-0.24157 0.04813,-0.0808 0.04732,-0.0808 0.144352,-0.24351 0.04733,-0.0812 0.04812,-0.0812 0.09624,-0.16299 0.04732,-0.0815 0.144356,-0.24544 0.04732,-0.0818 0.04812,-0.0818 0.09624,-0.16428 0.04812,-0.0818 0.04733,-0.0824 0.09624,-0.16428 0.04812,-0.0824 0.04732,-0.0824 0.144356,-0.24738 0.04732,-0.0825 0.04812,-0.0828 0.04812,-0.0824 0.04812,-0.0828 0.04732,-0.0824 0.144352,-0.24834 0.04733,-0.0828 0.192477,-0.33112 0.0473,-0.0828 0.14435,-0.24834 0.0473,-0.0828 0.14436,-0.24834 0.0473,-0.0828 0.0962,-0.16555 0.0481,-0.0825 0.0473,-0.0828 0.0481,-0.0825 0.0481,-0.0828 0.0962,-0.16492 0.0473,-0.0825 0.0963,-0.16492 0.0481,-0.0821 0.0473,-0.0825 0.14436,-0.24642 0.0473,-0.0821 0.14436,-0.24544 0.0473,-0.0818 0.0481,-0.0818 0.144351,-0.24448 0.0473,-0.0812 0.14435,-0.24351 0.0473,-0.0808 0.0481,-0.0809 0.0481,-0.0805 0.0481,-0.0808 0.0473,-0.0805 0.14436,-0.2406 0.0473,-0.0799 0.0963,-0.15977 0.0481,-0.0796 0.0473,-0.0796 0.0963,-0.15847 0.0963,-0.15783 0.0473,-0.0786 0.0963,-0.15719 0.0481,-0.0783 0.0473,-0.078 0.0963,-0.1559 0.0481,-0.0773 0.0473,-0.0776 0.0481,-0.077 0.0481,-0.0773 0.0481,-0.0767 0.0473,-0.0767 0.0481,-0.0767 0.14435,-0.22805 0.0473,-0.0757 0.0963,-0.15075 0.0481,-0.0751 0.0473,-0.0748 0.0481,-0.0747 0.0481,-0.0744 0.0481,-0.0741 0.0473,-0.0738 0.0481,-0.0738 0.0963,-0.14688 0.0473,-0.0728 0.0481,-0.0728 0.0481,-0.0725 0.0481,-0.0722 0.0473,-0.0722 0.0481,-0.0719 0.0481,-0.0711 0.0481,-0.0715 0.0481,-0.0704 0.0473,-0.0705 0.0481,-0.0705 0.0481,-0.0703 0.0481,-0.0699 0.0473,-0.0695 0.0481,-0.0692 0.0481,-0.0689 0.0482,-0.0686 0.0473,-0.0686 0.0963,-0.13593 0.0481,-0.0676 0.0473,-0.0673 0.0481,-0.067 0.0963,-0.13271 0.0481,-0.066 0.0473,-0.0657 0.0481,-0.0654 0.0481,-0.065 0.0481,-0.0647 0.0473,-0.0644 0.04811,-0.0641 0.0481,-0.0637 0.0481,-0.0635 0.0473,-0.0631 0.0963,-0.12499 0.0481,-0.0621 0.0474,-0.0615 0.0481,-0.0615 0.0481,-0.0609 0.0481,-0.0606 0.0473,-0.0602 0.0481,-0.0599 0.0481,-0.0596 0.0481,-0.0592 0.0481,-0.0586 0.0473,-0.0586 0.0481,-0.058 0.0481,-0.0577 0.0481,-0.0573 0.0473,-0.0567 0.0481,-0.0567 0.0481,-0.0561 0.0481,-0.0557 0.0473,-0.0555 0.0481,-0.0551 0.0481,-0.0545 0.0481,-0.0541 0.0473,-0.0538 0.0481,-0.0535 0.0481,-0.0528 0.0481,-0.0526 0.0481,-0.0522 0.0473,-0.0516 0.0481,-0.0513 0.0481,-0.0509 0.0481,-0.0505 0.0473,-0.05 0.0481,-0.0496 0.0481,-0.0493 0.0481,-0.0486 0.0473,-0.0483 0.0963,-0.0954 0.0481,-0.0467 0.0473,-0.0467 0.0481,-0.046 0.0481,-0.0457 0.0481,-0.0451 0.0473,-0.0447 0.0481,-0.0441 0.0481,-0.0438 0.0481,-0.0435 0.0481,-0.0428 0.0473,-0.0425 0.0481,-0.0422 0.0963,-0.0824 0.0473,-0.0406 0.0963,-0.0799 0.0481,-0.039 0.0473,-0.0387 0.0481,-0.0383 0.0481,-0.0377 0.0481,-0.0374 0.0473,-0.0367 0.0481,-0.0364 0.0481,-0.0358 0.0963,-0.0703 0.0473,-0.0342 0.0481,-0.0338 0.0481,-0.0335 0.0481,-0.0329 0.0473,-0.0322 0.0481,-0.0319 0.0481,-0.0312 0.0481,-0.0309 0.0473,-0.0302 0.0481,-0.0299 0.0481,-0.0294 0.0481,-0.0289 0.0473,-0.028 0.0481,-0.028 0.0963,-0.0541 0.0473,-0.026 0.0481,-0.0257 0.0481,-0.0251 0.0481,-0.0248 0.0481,-0.0242 0.0473,-0.0238 0.0481,-0.0232 0.0481,-0.0225 0.0481,-0.0219 0.0474,-0.0215 0.0481,-0.0213 0.0481,-0.0206 0.0481,-0.02 0.0473,-0.0193 0.0481,-0.019 0.0481,-0.0184 0.0481,-0.0178 0.0473,-0.0174 0.0481,-0.0168 0.0481,-0.0164 0.0481,-0.0158 0.0481,-0.0152 0.0473,-0.0149 0.09631,-0.0277 0.0481,-0.0129 0.0473,-0.0126 0.0481,-0.012 0.0481,-0.0116 0.0481,-0.0109 0.0473,-0.0104 0.0481,-0.01 0.0481,-0.009 0.0481,-0.009 0.0473,-0.008 0.0481,-0.008 0.0481,-0.007 0.0481,-0.006 0.0473,-0.006 0.0481,-0.006 0.0481,-0.005 0.0481,-0.005 0.0481,-0.004 0.0474,-0.003 0.0481,-0.003 0.0481,-0.002 0.0481,-10e-4 0.0473,-0.001 0.0481,-3.3e-4 h 0.0481 l 0.0481,3.3e-4 0.0473,0.001 0.0481,10e-4 0.0481,0.002 0.0481,0.003 0.0473,0.003 0.0481,0.004 0.0481,0.005 0.0481,0.005 0.0481,0.006 0.0473,0.006 0.0481,0.006 0.0481,0.007 0.0481,0.008 0.0473,0.008 0.0481,0.009 0.0481,0.009 0.0481,0.01 0.0473,0.0104 0.0481,0.0109 0.0481,0.0116 0.0481,0.012 0.0473,0.0126 0.0481,0.0129 0.0963,0.0277 0.0473,0.0149 0.0481,0.0152 0.0481,0.0158 0.0481,0.0164 0.0481,0.0168 0.0473,0.0174 0.0481,0.0178 0.0481,0.0184 0.0481,0.019 0.0473,0.0193 0.0481,0.02 0.0481,0.0206 0.0481,0.0213 0.0473,0.0215 0.0481,0.0219 0.0481,0.0225 0.0481,0.0232 0.0473,0.0238 0.0481,0.0242 0.0481,0.0248 0.0481,0.0251 0.0481,0.0257 0.0473,0.026 0.0963,0.0541 0.0481,0.028 0.0473,0.028 0.0481,0.0289 0.0481,0.0294 0.0481,0.0299 0.0473,0.0302 0.0481,0.0309 0.0481,0.0312 0.0481,0.0319 0.0473,0.0322 0.0481,0.0329 0.0481,0.0335 0.0481,0.0338 0.0473,0.0342 0.0962,0.0703 0.0481,0.0358 0.0481,0.0364 0.0473,0.0367 0.0481,0.0374 0.0481,0.0377 0.0481,0.0383 0.0473,0.0387 0.0481,0.039 0.0963,0.0799 0.0473,0.0406 0.0963,0.0824 0.0481,0.0422 0.0473,0.0425 0.0481,0.0428 0.0481,0.0435 0.0481,0.0438 0.0481,0.0441 0.0473,0.0447 0.0481,0.0451 0.0481,0.0457 0.0481,0.046 0.0473,0.0467 0.0481,0.0467 0.0963,0.0954 0.0473,0.0483 0.0481,0.0486 0.0481,0.0493 0.0481,0.0496 0.0473,0.05 0.0481,0.0505 0.0481,0.0509 0.0481,0.0513 0.0473,0.0516 0.0481,0.0522 0.0481,0.0526 0.0481,0.0528 0.0481,0.0535 0.0473,0.0538 0.0481,0.0541 0.0481,0.0545 0.0481,0.0551 0.0473,0.0555 0.0481,0.0557 0.0481,0.0561 0.0481,0.0567 0.0473,0.0567 0.0481,0.0573 0.0481,0.0577 0.0481,0.058 0.0473,0.0586 0.0481,0.0586 0.0481,0.0592 0.0481,0.0596 0.0481,0.0599 0.0473,0.0602 0.0481,0.0606 0.0481,0.0609 0.0481,0.0615 0.0473,0.0615 0.0481,0.0621 0.0963,0.12499 0.0473,0.0631 0.0481,0.0635 0.0481,0.0637 0.0481,0.0641 0.0473,0.0644 0.0481,0.0647 0.0481,0.065 0.0481,0.0654 0.0473,0.0657 0.0481,0.066 0.0963,0.13271 0.0481,0.067 0.0473,0.0673 0.0481,0.0676 0.0963,0.13593 0.0473,0.0686 0.0481,0.0686 0.0481,0.0689 0.0481,0.0692 0.0473,0.0695 0.0481,0.0699 0.0481,0.0703 0.0481,0.0705 0.0473,0.0705 0.0481,0.0709 0.0481,0.0716 0.0481,0.0712 0.0481,0.0719 0.0473,0.0722 0.0481,0.0722 0.0481,0.0725 0.0481,0.0728 0.0473,0.0728 0.0962,0.14688 0.0481,0.0738 0.0473,0.0738 0.0481,0.0741 0.0481,0.0744 0.0481,0.0747 0.0473,0.0748 0.0481,0.0751 0.0963,0.15075 0.0473,0.0757 0.14435,0.22806 0.0481,0.0767 0.0473,0.0767 0.0481,0.0767 0.0481,0.0773 0.0481,0.077 0.0473,0.0776 0.0481,0.0773 0.0963,0.1559 0.0473,0.078 0.0481,0.0783 0.0963,0.15719 0.0473,0.0786 0.0963,0.15782 0.0963,0.15848 0.0473,0.0796 0.0481,0.0796 0.0963,0.15976 0.0473,0.0799 0.14436,0.24062 0.0473,0.0805 0.0481,0.0808 0.0481,0.0805 0.0481,0.0809 0.0473,0.0808 0.14435,0.2435 0.0473,0.0812 0.14436,0.24448 0.0481,0.0818 0.0473,0.0818 0.14436,0.24544 0.0473,0.0821 0.14436,0.24642 0.0473,0.0824 0.0481,0.0821 0.0962,0.16492 0.0473,0.0824 0.0963,0.16491 0.0481,0.0828 0.0481,0.0825 0.0473,0.0828 0.0481,0.0824 0.0963,0.16556 0.0473,0.0828 0.14436,0.24835 0.0473,0.0828 0.14435,0.24834 0.0473,0.0828 0.19247,0.33113 0.0473,0.0828 0.14436,0.24835 0.0473,0.0825 0.0481,0.0828 0.0481,0.0824 0.0481,0.0828 0.0473,0.0825 0.14434,0.24738 0.0473,0.0824 0.0481,0.0825 0.0963,0.16427 0.0473,0.0824 0.0481,0.0818 0.0962,0.16427 0.0481,0.0818 0.0473,0.0818 0.14437,0.24544 0.0474,0.0815 0.0963,0.16298 0.0481,0.0812 0.0473,0.0812 0.14435,0.24352 0.0473,0.0808 0.0481,0.0808 0.14436,0.24158 0.0473,0.0805 0.14435,0.24062 0.0473,0.0799 0.0481,0.0799 0.0963,0.15912 0.0473,0.0796 0.0481,0.0796 0.0481,0.0792 0.0481,0.0789 0.0473,0.0792 0.0481,0.0786 0.0481,0.0789 0.0481,0.0786 0.0473,0.0783 0.0963,0.15654 0.0963,0.1559 0.0473,0.078 0.0481,0.0776 0.0962,0.1546 0.0473,0.0773 0.0481,0.077 0.0963,0.15332 0.0473,0.0767 0.0962,0.15268 0.0481,0.076 0.0473,0.0757 0.0481,0.076 0.14435,0.22613 0.0473,0.0751 0.0963,0.14946 0.0481,0.0744 0.0473,0.0744 0.0963,0.14816 0.0481,0.0738 0.0473,0.0738 0.0481,0.0735 0.0963,0.14623 0.0473,0.0728 0.0481,0.0728 0.0481,0.0725 0.0481,0.0722 0.0473,0.0722 0.0963,0.14366 0.0481,0.0715 0.0481,0.0712 0.0473,0.0712 0.0481,0.0709 0.0963,0.14109 0.0473,0.0702 0.0481,0.0703 0.0481,0.0699 0.0481,0.0695 0.0473,0.0695 0.0481,0.0693 0.0963,0.13786 0.0473,0.0686 0.0963,0.13657 0.0963,0.13593 0.0473,0.0673 0.0963,0.13464 0.0481,0.0666 0.0473,0.0666 0.0963,0.1327 0.0481,0.066 0.0473,0.0657 0.0481,0.0656 0.0481,0.065 0.0481,0.0654 0.0473,0.0647 0.0481,0.0648 0.0481,0.0644 0.0481,0.0641 0.0473,0.0641 0.0481,0.0635 0.0481,0.0637 0.0963,0.12627 0.0473,0.0628 0.0481,0.0625 0.0962,0.12433 0.0473,0.0619 0.0481,0.0618 0.0963,0.12241 0.0473,0.0609 0.0481,0.0609 0.0963,0.12047 0.0473,0.0599 0.0481,0.0599 0.0481,0.0596 0.0481,0.0593 0.0481,0.059 0.0473,0.0586 0.0481,0.0586 0.0481,0.0583 0.0481,0.058 0.0473,0.058 0.0481,0.0576 0.0481,0.0573 0.0481,0.057 0.0473,0.0567 0.0481,0.0567 0.0481,0.0564 0.0481,0.0561 0.0473,0.0561 0.14435,0.16622 0.0473,0.0548 0.0481,0.0548 0.0481,0.0545 0.0481,0.0541 0.0481,0.0538 0.0473,0.0538 0.0481,0.0535 0.0962,0.10629 0.0473,0.0526 0.0481,0.0526 0.0963,0.10436 0.0473,0.0516 0.0481,0.0516 0.0963,0.10244 0.0473,0.0505 0.0481,0.0506 0.0962,0.10051 0.0481,0.0497 0.0473,0.0496 0.0481,0.0492 0.0963,0.0979 0.0473,0.0486 0.0481,0.0483 0.0963,0.096 0.0473,0.0473 0.0481,0.0476 0.0481,0.047 0.0481,0.0467 0.0473,0.0467 0.0963,0.0928 0.0481,0.0457 0.0473,0.0457 0.0963,0.0909 0.0963,0.0896 0.0473,0.0445 0.0481,0.0445 0.0962,0.0876 0.0473,0.0435 0.0481,0.0435 0.0481,0.0432 0.0481,0.0428 0.0473,0.0425 0.0481,0.0425 0.0963,0.0837 0.0473,0.0418 0.0481,0.0416 0.0481,0.0409 0.0481,0.0412 0.0481,0.0406 0.0473,0.0406 0.0481,0.0403 0.0962,0.0799 0.0473,0.0396 0.0963,0.0786 0.0481,0.039 0.0473,0.0387 0.0962,0.0767 0.0481,0.0381 0.0473,0.0377 0.0481,0.0377 0.0481,0.0373 0.0481,0.0371 0.0473,0.0371 0.0481,0.0364 0.0481,0.0367 0.0963,0.0722 0.0473,0.0358 0.0963,0.0709 0.0481,0.0352 0.0473,0.0352 0.0481,0.0348 0.0481,0.0345 0.0481,0.0342 0.0473,0.0342 0.0481,0.0338 0.0963,0.067 0.0473,0.0332 0.0481,0.0332 0.0481,0.0329 0.0481,0.0326 0.0481,0.0323 0.0473,0.0323 0.0963,0.0638 0.0481,0.0316 0.0473,0.0313 0.0481,0.0313 0.0963,0.0619 0.0473,0.0302 0.0481,0.0307 0.0963,0.0599 0.0473,0.0297 0.0481,0.0297 0.0962,0.0586 0.0473,0.0289 0.0963,0.0574 0.0481,0.0283 0.0481,0.028 0.0473,0.028 0.0963,0.0554 0.0481,0.0273 0.0473,0.027 0.0963,0.0541 0.0481,0.0264 0.0473,0.0267 0.14435,0.0783 0.0473,0.0258 0.0963,0.051 0.0963,0.0503 0.0473,0.0248 0.14436,0.0735 0.0473,0.0242 0.0963,0.0476 0.0481,0.0235 0.0473,0.0235 0.0963,0.0463 0.0481,0.0229 0.0473,0.0228 0.0481,0.0226 0.0963,0.0444 0.0473,0.0222 0.0481,0.0219 0.14434,0.0647 0.0473,0.0213 0.0481,0.0213 0.0481,0.0209 0.0481,0.0206 0.0473,0.0206 0.0481,0.0206 0.0481,0.0203 0.0481,0.0199 0.0473,0.02 0.0481,0.0199 0.0963,0.0393 0.0473,0.0193 0.0481,0.0193 0.0963,0.038 0.0481,0.0187 0.0473,0.0187 0.14435,0.0551 0.0473,0.018 0.0481,0.018 0.0962,0.0354 0.0473,0.0174 0.0481,0.0174 0.0963,0.0342 0.0473,0.0171 0.0962,0.0335 0.0481,0.0164 0.0473,0.0164 0.14437,0.0482 0.0481,0.0158 0.0473,0.0158 0.14435,0.0463 0.0473,0.0152 0.0962,0.0302 0.0481,0.0148 0.0473,0.0145 0.14436,0.0435 0.0473,0.0142 0.0481,0.0142 0.14435,0.0416 0.0473,0.0135 0.0963,0.0271 0.0481,0.0133 0.0473,0.0133 0.14436,0.0387 0.0473,0.0129 0.0481,0.0126 0.0481,0.0123 0.0481,0.0126 0.0473,0.0123 0.0481,0.0123 0.0963,0.0238 0.0473,0.012 0.19246,0.0463 0.0473,0.0113 0.0481,0.0112 0.0963,0.0219 0.0473,0.011 0.0481,0.011 0.0963,0.0213 0.0473,0.0105 0.14436,0.031 0.0473,0.0104 0.0963,0.0199 0.0481,0.01 0.0481,0.0101 0.0473,0.0101 0.0481,0.0101 0.0962,0.0186 0.0473,0.009 0.0963,0.0186 0.0481,0.009 0.0473,0.009 0.0481,0.009 0.0481,0.009 0.0481,0.009 0.0473,0.009 0.0481,0.008 0.0481,0.009 0.0481,0.008 0.0473,0.008 0.0963,0.0161 0.0481,0.008 0.0481,0.008 0.0473,0.008 0.0481,0.008 0.0963,0.0155 0.0473,0.007 0.0481,0.008 0.0963,0.0148 0.0473,0.007 0.0481,0.007 0.0481,0.007 0.0481,0.007 0.0473,0.007 0.0481,0.007 0.0481,0.007 0.0963,0.0135 0.0473,0.007 0.0481,0.007 0.0963,0.0129 0.0473,0.006 0.0963,0.0129 0.0481,0.006 0.0473,0.006 0.14437,0.0184 0.0473,0.006 0.0481,0.006 0.0963,0.0116 0.0481,0.006 0.0473,0.006 0.0481,0.006 0.0481,0.006 0.0481,0.006 0.0473,0.005 0.0481,0.006 0.0481,0.005 0.0481,0.006 0.0473,0.005 0.0963,0.0104 0.0481,0.005 0.0473,0.005 0.14434,0.0145 0.0473,0.005 0.0481,0.005 0.0481,0.005 0.0481,0.005 0.0481,0.005 0.0473,0.005 0.0963,0.009 0.0481,0.004 0.0473,0.005 0.14434,0.0126 0.0473,0.004 0.0963,0.008 0.0481,0.004 0.0473,0.004 0.19248,0.0155 0.0473,0.003 0.0481,0.004 0.0481,0.003 0.0481,0.004 0.0473,0.003 0.14435,0.0105 0.0473,0.003 0.0963,0.007 0.0481,0.003 0.0473,0.003 0.14434,0.0101 0.0473,0.003 0.0481,0.003 0.0481,0.003 0.0481,0.003 0.0481,0.003 0.0473,0.003 0.0481,0.003 0.0963,0.006 0.0473,0.003 0.0963,0.006 0.0481,0.003 0.0473,0.003 0.0963,0.005 0.0481,0.003 0.0473,0.003 0.0481,0.003 0.0481,0.002 0.0963,0.005 0.0473,0.003 0.0481,0.002 0.0481,0.003 0.0481,0.002 0.0473,0.002 0.14436,0.007 0.0473,0.002 0.14435,0.007 0.0473,0.002 0.0481,0.002 0.0481,0.002 0.0481,0.002 0.0473,0.002 0.19247,0.008 0.0473,0.002 0.14436,0.006 0.0473,0.001 0.0963,0.004 0.0481,0.001 0.0473,10e-4 0.0481,0.002 0.0963,0.003 0.0473,0.001 0.19248,0.006 0.0473,0.001 0.0963,0.003 0.0481,10e-4 0.0473,0.001 0.0481,10e-4 0.0481,10e-4 0.0481,0.001 0.0473,10e-4 0.14435,0.004 0.0473,10e-4 0.14435,0.004 0.0473,10e-4 0.0481,0.001 0.0481,7e-4 0.0963,0.003 0.0473,0.001 0.0481,6.9e-4 0.0963,0.003 0.0473,6.9e-4 0.0481,0.001 0.0962,0.002 0.0473,0.001 0.0963,0.002 0.0481,10e-4 0.0473,6.9e-4 0.19248,0.004 0.0473,6.9e-4 0.14435,0.003 0.0473,6.9e-4 0.0481,6.9e-4 0.0962,0.002 0.0473,6.9e-4 0.0481,6.9e-4 0.0963,0.002 0.0473,6.9e-4 0.0481,6.9e-4 0.0481,6.9e-4 0.0481,7e-4 0.0473,6.9e-4 0.0481,6.9e-4 0.0481,7e-4 0.0963,10e-4 0.0473,6.9e-4 0.14436,0.002 0.0473,7e-4 0.0481,6.9e-4 0.0481,7e-4 0.0481,6.9e-4 0.0473,6.8e-4 0.14435,0.002 0.0473,7e-4 0.0481,2.4e-4 0.14435,0.002 0.0473,6.9e-4 0.0481,6.9e-4 0.0481,2.5e-4 0.0481,6.9e-4 0.0473,6.9e-4 0.0481,2.3e-4 0.0963,10e-4 0.0473,2.3e-4 0.0481,6.9e-4 0.0481,2.2e-4 0.0481,7e-4 0.0473,6.9e-4 0.0481,2.3e-4 0.0481,7e-4 0.0481,2.3e-4 0.0473,2.3e-4 0.0481,6.9e-4 0.0481,2.4e-4 0.0481,7e-4 0.0481,2.3e-4 0.0473,2.3e-4 0.0481,6.9e-4 0.0963,7e-4 0.0473,6.9e-4 0.14435,6.9e-4 0.0473,7e-4 0.14436,6.9e-4 0.0473,2.3e-4 0.0963,6.9e-4 0.0481,7e-4 0.0481,2.3e-4 0.0473,2.4e-4 0.14436,6.9e-4 0.0473,2.3e-4 0.14434,7e-4 0.0473,2.3e-4 0.0481,2.3e-4 h 0.0481 l 0.0481,2.4e-4 0.0474,2.3e-4 0.14435,7e-4 0.0473,2.3e-4 0.0481,2.3e-4 h 0.0481 l 0.0963,6.9e-4 0.0473,2.3e-4 h 0.0481 l 0.0963,7e-4 0.0473,2.4e-4 h 0.0481 l 0.0962,6.9e-4 0.0473,2.3e-4 h 0.0481 l 0.0963,7e-4 h 0.0473 l 0.0962,6.9e-4 h 0.0481 l 0.0481,2.4e-4 h 0.0473 l 0.0962,6.8e-4 h 0.0481 l 0.0473,2.5e-4"
       id="path4537" />
    <circle
       style="opacity:1;fill:#000000;fill-opacity:0.97206708;stroke:none;stroke-width:0.63249999;stroke-miterlimit:10;stroke-dasharray:none;stroke-dashoffset:25.60450172;stroke-opacity:0.97206708"
       id="path5151"
       cx="83.95623"
       cy="284.8165"
       r="3.526979" />
    <circle
       style="opacity:1;fill:#000000;fill-opacity:0.97206708;stroke:none;stroke-width:0.63249999;stroke-miterlimit:10;stroke-dasharray:none;stroke-dashoffset:25.60450172;stroke-opacity:0.97206708"
       id="path5151-0"
       cx="63.407745"
       cy="284.88559"
       r="3.526979" />
    <circle
       style="opacity:1;fill:#000000;fill-opacity:0.97206708;stroke:none;stroke-width:0.63249999;stroke-miterlimit:10;stroke-dasharray:none;stroke-dashoffset:25.60450172;stroke-opacity:0.97206708"
       id="path5151-8"
       cx="45.006119"
       cy="284.73224"
       r="3.526979" />
    <circle
       style="opacity:1;fill:#000000;fill-opacity:0.97206708;stroke:none;stroke-width:0.63249999;stroke-miterlimit:10;stroke-dasharray:none;stroke-dashoffset:25.60450172;stroke-opacity:0.97206708"
       id="path5151-4"
       cx="25.684406"
       cy="284.8165"
       r="3.526979" />
    <circle
       style="opacity:1;fill:#000000;fill-opacity:0.97206708;stroke:none;stroke-width:0.63249999;stroke-miterlimit:10;stroke-dasharray:none;stroke-dashoffset:25.60450172;stroke-opacity:0.97206708"
       id="path5151-04"
       cx="10.043031"
       cy="284.42557"
       r="3.526979" />
    <circle
       style="opacity:1;fill:#000000;fill-opacity:0.97206708;stroke:none;stroke-width:0.63249999;stroke-miterlimit:10;stroke-dasharray:none;stroke-dashoffset:25.60450172;stroke-opacity:0.97206708"
       id="path5151-0-7"
       cx="180.12219"
       cy="284.65558"
       r="3.526979" />
    <circle
       style="opacity:1;fill:#000000;fill-opacity:0.97206708;stroke:none;stroke-width:0.63249999;stroke-miterlimit:10;stroke-dasharray:none;stroke-dashoffset:25.60450172;stroke-opacity:0.97206708"
       id="path5151-8-5"
       cx="161.72057"
       cy="284.50223"
       r="3.526979" />
    <circle
       style="opacity:1;fill:#000000;fill-opacity:0.97206708;stroke:none;stroke-width:0.63249999;stroke-miterlimit:10;stroke-dasharray:none;stroke-dashoffset:25.60450172;stroke-opacity:0.97206708"
       id="path5151-4-7"
       cx="142.39885"
       cy="284.58649"
       r="3.526979" />
    <circle
       style="opacity:1;fill:#000000;fill-opacity:0.97206708;stroke:none;stroke-width:0.63249999;stroke-miterlimit:10;stroke-dasharray:none;stroke-dashoffset:25.60450172;stroke-opacity:0.97206708"
       id="path5151-04-2"
       cx="126.75752"
       cy="284.19556"
       r="3.526979" />
    <rect
       style="opacity:1;fill:#000000;fill-opacity:1;stroke:none;stroke-width:0.42671221;stroke-miterlimit:10;stroke-dasharray:none;stroke-dashoffset:25.60450172;stroke-opacity:0.97206708"
       id="rect5860"
       width="8.1873007"
       height="1.0843265"
       x="98.129448"
       y="237.60492" />
    <path
       sodipodi:type="star"
       style="opacity:1;fill:#000000;fill-opacity:0.97206708;stroke:none;stroke-width:0.495;stroke-miterlimit:10;stroke-dasharray:none;stroke-dashoffset:25.60450172;stroke-opacity:0.97765347"
       id="path5862"
       sodipodi:sides="3"
       sodipodi:cx="89.999092"
       sodipodi:cy="231.07295"
       sodipodi:r1="1.5334691"
       sodipodi:r2="0.77213699"
       sodipodi:arg1="-2.9996956"
       sodipodi:arg2="-1.952498"
       inkscape:flatsided="false"
       inkscape:rounded="0"
       inkscape:randomized="0"
       d="m 88.481035,230.85609 1.230436,-0.49971 1.23446,-0.48967 -0.182462,1.31544 -0.193159,1.31391 -1.047973,-0.81574 z"
       inkscape:transform-center-x="0.3149463"
       inkscape:transform-center-y="0.022273798"
       transform="matrix(0.82976511,-0.07869912,0.12913497,0.75643067,-6.8108705,70.4872)" />
    <path
       sodipodi:type="star"
       style="opacity:1;fill:#000000;fill-opacity:0.97206708;stroke:none;stroke-width:0.495;stroke-miterlimit:10;stroke-dasharray:none;stroke-dashoffset:25.60450172;stroke-opacity:0.97765347"
       id="path5862-1"
       sodipodi:sides="3"
       sodipodi:cx="89.999092"
       sodipodi:cy="231.07295"
       sodipodi:r1="1.5334691"
       sodipodi:r2="0.77213699"
       sodipodi:arg1="-2.9996956"
       sodipodi:arg2="-1.952498"
       inkscape:flatsided="false"
       inkscape:rounded="0"
       inkscape:randomized="0"
       d="m 88.481035,230.85609 1.230436,-0.49971 1.23446,-0.48967 -0.182462,1.31544 -0.193159,1.31391 -1.047973,-0.81574 z"
       inkscape:transform-center-x="-0.3149477"
       inkscape:transform-center-y="-0.022498577"
       transform="matrix(-0.82976511,0.07950292,-0.12913497,-0.76415659,211.1863,407.65024)" />
    <text
       xml:space="preserve"
       style="font-style:normal;font-variant:normal;font-weight:normal;font-stretch:normal;font-size:4.63020849px;line-height:6.61458302px;font-family:sans-serif;-inkscape-font-specification:'sans-serif, Normal';text-align:start;letter-spacing:0px;word-spacing:0px;writing-mode:lr-tb;text-anchor:start;fill:#000000;fill-opacity:1;stroke:none;stroke-width:0.26458332px;stroke-linecap:butt;stroke-linejoin:miter;stroke-opacity:1"
       x="101.49296"
       y="236.48158"
       id="text5887"><tspan
         sodipodi:role="line"
         id="tspan5885"
         x="101.49296"
         y="236.48158"
         style="font-style:italic;font-variant:normal;font-weight:normal;font-stretch:normal;font-family:'Times New Roman';-inkscape-font-specification:'Times New Roman,  Italic';stroke-width:0.26458332px">µ</tspan></text>
    <path
       style="fill:none;fill-rule:evenodd;stroke:#7d7d7d;stroke-width:0.60000002;stroke-linecap:butt;stroke-linejoin:miter;stroke-miterlimit:4;stroke-dasharray:none;stroke-opacity:1"
       d="m 96.396621,235.65419 v 39.93036"
       id="path5891"
       inkscape:connector-curvature="0" />
    <path
       style="fill:none;fill-rule:evenodd;stroke:#7d7d7d;stroke-width:0.60000003;stroke-linecap:butt;stroke-linejoin:miter;stroke-miterlimit:4;stroke-dasharray:1.20000006,0.60000003;stroke-opacity:1;stroke-dashoffset:0"
       d="m 107.99891,235.71703 v 39.93036"
       id="path5891-0"
       inkscape:connector-curvature="0" />
    <rect
       style="opacity:1;fill:#ff6200;fill-opacity:0.97206708;stroke:none;stroke-width:0.60000002;stroke-miterlimit:4;stroke-dasharray:1.20000004, 0.60000002;stroke-dashoffset:0;stroke-opacity:1"
       id="rect5960"
       width="0.56090099"
       height="39.923317"
       x="68.751907"
       y="235.66124" />
    <circle
       style="opacity:1;fill:#ffffff;fill-opacity:1;stroke:#000000;stroke-width:0.77411813;stroke-miterlimit:4;stroke-dasharray:none;stroke-dashoffset:25.60450172;stroke-opacity:1"
       id="path5105-4"
       cx="63.178928"
       cy="285.10806"
       r="8.5470209" />
    <text
       xml:space="preserve"
       style="font-style:normal;font-variant:normal;font-weight:normal;font-stretch:normal;font-size:12.33647728px;line-height:17.62353897px;font-family:sans-serif;-inkscape-font-specification:'sans-serif, Normal';text-align:start;letter-spacing:0px;word-spacing:0px;writing-mode:lr-tb;text-anchor:start;fill:#000000;fill-opacity:1;stroke:none;stroke-width:0.70494151px;stroke-linecap:butt;stroke-linejoin:miter;stroke-opacity:1"
       x="60.278645"
       y="286.04318"
       id="text5109-5"><tspan
         sodipodi:role="line"
         id="tspan5107-1"
         x="60.278645"
         y="286.04318"
         style="font-style:italic;font-variant:normal;font-weight:normal;font-stretch:normal;line-height:155.62446594px;font-family:'Times New Roman';-inkscape-font-specification:'Times New Roman,  Italic';stroke-width:0.70494151px">y</tspan></text>
    <text
       xml:space="preserve"
       style="font-style:normal;font-variant:normal;font-weight:normal;font-stretch:normal;font-size:6.30815983px;line-height:9.01165676px;font-family:'Times New Roman';-inkscape-font-specification:'Times New Roman, ';text-align:start;letter-spacing:0px;word-spacing:0px;writing-mode:lr-tb;text-anchor:start;fill:#000000;fill-opacity:1;stroke:none;stroke-width:0.36046624px;stroke-linecap:butt;stroke-linejoin:miter;stroke-opacity:1"
       x="64.444382"
       y="289.48282"
       id="text5113-7"><tspan
         sodipodi:role="line"
         id="tspan5111-8"
         x="64.444382"
         y="289.48282"
         style="font-style:normal;font-variant:normal;font-weight:normal;font-stretch:normal;font-family:'Times New Roman';-inkscape-font-specification:'Times New Roman, ';stroke-width:0.36046624px">2</tspan></text>
    <text
       xml:space="preserve"
       style="font-style:normal;font-variant:normal;font-weight:normal;font-stretch:normal;font-size:4.81947422px;line-height:6.88496304px;font-family:sans-serif;-inkscape-font-specification:'sans-serif, Normal';text-align:start;letter-spacing:0px;word-spacing:0px;writing-mode:lr-tb;text-anchor:start;fill:#000000;fill-opacity:1;stroke:none;stroke-width:0.27539849px;stroke-linecap:butt;stroke-linejoin:miter;stroke-opacity:1"
       x="106.79205"
       y="284.45255"
       id="text5109-5-3"><tspan
         sodipodi:role="line"
         id="tspan5107-1-0"
         x="106.79205"
         y="284.45255"
         style="font-style:italic;font-variant:normal;font-weight:normal;font-stretch:normal;line-height:60.79759216px;font-family:'Times New Roman';-inkscape-font-specification:'Times New Roman,  Italic';stroke-width:0.27539849px">y</tspan></text>
    <text
       xml:space="preserve"
       style="font-style:normal;font-variant:normal;font-weight:normal;font-stretch:normal;font-size:2.46439981px;line-height:3.52057123px;font-family:'Times New Roman';-inkscape-font-specification:'Times New Roman, ';text-align:start;letter-spacing:0px;word-spacing:0px;writing-mode:lr-tb;text-anchor:start;fill:#000000;fill-opacity:1;stroke:none;stroke-width:0.14082286px;stroke-linecap:butt;stroke-linejoin:miter;stroke-opacity:1"
       x="108.41945"
       y="285.7963"
       id="text5113-7-9"><tspan
         sodipodi:role="line"
         id="tspan5111-8-0"
         x="108.41945"
         y="285.7963"
         style="font-style:normal;font-variant:normal;font-weight:normal;font-stretch:normal;font-family:'Times New Roman';-inkscape-font-specification:'Times New Roman, ';stroke-width:0.14082286px">1</tspan></text>
  </g>
</svg>
